# xmcd CD database file
#
# Track frame offsets:
#	180
#	13414
#	26853
#	44316
#	56964
#	68442
#	82020
#	94407
#	105842
#	119994
#	134621
#	148781
#	161907
#
# Disc length: 3202 seconds
#
# Revision: 0
# Processed by: cddbd v1.5.2PL0 Copyright (c) Steve Scherf et al.
# Submitted via: CDex 1.70beta2
#
DISCID=c70c800d
DTITLE=Charlie Parker - Great Master [CD10 of 10)
DYEAR=1900
DGENRE=Jazz
TTITLE0=Ballade (1950)
TTITLE1=Bongo Beep (1947)
TTITLE2=Congo Blues (1945)
TTITLE3=Don't Blame Me (1947)
TTITLE4=Flat Floot Boogie (1945)
TTITLE5=I'll Always Love You (1944)
TTITLE6=La Cucaracha (1952)
TTITLE7=Max (Is) Making Wax (1946)
TTITLE8=Red Cross (1944)
TTITLE9=Slim's Jam (1945)
TTITLE10=Takin' Off (1945)
TTITLE11=Tiny's Tempo (1944)
TTITLE12=Ballad Medley 
EXTD=
EXTT0=
EXTT1=
EXTT2=
EXTT3=
EXTT4=
EXTT5=
EXTT6=
EXTT7=
EXTT8=
EXTT9=
EXTT10=
EXTT11=
EXTT12=
PLAYORDER=
